<svg width="16" height="15" viewBox="0 0 16 15" fill="none" xmlns="http://www.w3.org/2000/svg">
<g id="material-symbols:sports-martial-arts">
<path id="Vector" d="M7.39831 13.4999C7.06262 13.4999 6.78541 13.2377 6.76679 12.9025L6.53005 8.64123C6.51129 8.30356 6.32313 7.99825 6.02993 7.82972L5.12616 7.31023C4.85782 7.15599 4.51616 7.29765 4.43569 7.59652C4.40322 7.71715 4.41993 7.84574 4.48216 7.95407L5.3023 9.38173C5.46689 9.66824 5.36884 10.0339 5.08298 10.1996C4.79673 10.3656 4.43017 10.2684 4.26366 9.98249L3.29259 8.315C3.15666 8.08159 3.12094 7.80312 3.19354 7.54296L3.68986 5.7645C3.76042 5.51163 3.9276 5.29666 4.15529 5.16598L6.11664 4.04034C6.68785 3.71251 6.79169 2.93161 6.32599 2.46592L6.02055 2.16047C5.78827 1.9282 5.78827 1.55161 6.02055 1.31933C6.25238 1.0875 6.62809 1.08699 6.86054 1.31819L8.34563 2.7952C8.77608 3.22331 8.682 3.94346 8.15602 4.24662L7.55648 4.59219C7.3032 4.73818 7.26862 5.08997 7.48863 5.28248C7.64528 5.41954 7.878 5.42347 8.03918 5.29177L12.2389 1.86026C12.4842 1.65988 12.8445 1.69187 13.0506 1.93232C13.2481 2.16267 13.2359 2.50593 13.0226 2.7217L8.56843 7.22829C8.39555 7.4032 8.29319 7.63569 8.2809 7.88131L8.03002 12.899C8.01319 13.2356 7.73535 13.4999 7.39831 13.4999ZM3.79998 4.4999C3.46998 4.4999 3.18738 4.3823 2.95218 4.1471C2.71738 3.9123 2.59998 3.6299 2.59998 3.2999C2.59998 2.9699 2.71738 2.6873 2.95218 2.4521C3.18738 2.2173 3.46998 2.0999 3.79998 2.0999C4.12998 2.0999 4.41238 2.2173 4.64718 2.4521C4.88238 2.6873 4.99998 2.9699 4.99998 3.2999C4.99998 3.6299 4.88238 3.9123 4.64718 4.1471C4.41238 4.3823 4.12998 4.4999 3.79998 4.4999Z" fill="white"/>
</g>
</svg>
