<svg width="18" height="19" viewBox="0 0 18 19" fill="none" xmlns="http://www.w3.org/2000/svg">
<rect width="18" height="19" fill="#F5F5F5"/>
<g id="29/12">
<path d="M-3078 -855C-3078 -856.105 -3077.1 -857 -3076 -857H1104C1105.1 -857 1106 -856.105 1106 -855V2339C1106 2340.1 1105.1 2341 1104 2341H-3076C-3077.1 2341 -3078 2340.1 -3078 2339V-855Z" fill="#EAEDED"/>
<path d="M-3076 -856H1104V-858H-3076V-856ZM1105 -855V2339H1107V-855H1105ZM1104 2340H-3076V2342H1104V2340ZM-3077 2339V-855H-3079V2339H-3077ZM-3076 2340C-3076.55 2340 -3077 2339.55 -3077 2339H-3079C-3079 2340.66 -3077.66 2342 -3076 2342V2340ZM1105 2339C1105 2339.55 1104.55 2340 1104 2340V2342C1105.66 2342 1107 2340.66 1107 2339H1105ZM1104 -856C1104.55 -856 1105 -855.552 1105 -855H1107C1107 -856.657 1105.66 -858 1104 -858V-856ZM-3076 -858C-3077.66 -858 -3079 -856.657 -3079 -855H-3077C-3077 -855.552 -3076.55 -856 -3076 -856V-858Z" fill="#5D5FEF"/>
<g id="Tela 7 - Dashboard / Perfil / Editar Perfil" clip-path="url(#clip0_0_1)">
<rect width="1900" height="900" transform="translate(-922 -388)" fill="white"/>
<g id="Frame 54003">
<g id="Dados Pessoais">
<rect x="-190.5" y="-242.5" width="649" height="579" rx="7.5" fill="white"/>
<rect x="-190.5" y="-242.5" width="649" height="579" rx="7.5" stroke="#E0E0E0"/>
<g id="Campo de Sele&#195;&#167;&#195;&#163;o">
<g id="Frame 53934">
<rect x="-166.5" y="-11.5" width="199" height="42" rx="7.5" stroke="#E0E0E0"/>
<g id="Frame 53933">
<path id="Vector" d="M5.44444 5.05556V1.5M12.5556 5.05556V1.5M4.55556 8.61111H13.4444M2.77778 17.5H15.2222C16.2041 17.5 17 16.7041 17 15.7222V5.05556C17 4.07372 16.2041 3.27778 15.2222 3.27778H2.77778C1.79594 3.27778 1 4.07372 1 5.05556V15.7222C1 16.7041 1.79594 17.5 2.77778 17.5Z" stroke="#0095D9" stroke-width="2" stroke-linecap="round" stroke-linejoin="round"/>
</g>
</g>
</g>
</g>
</g>
</g>
</g>
<defs>
<clipPath id="clip0_0_1">
<rect width="1900" height="900" fill="white" transform="translate(-922 -388)"/>
</clipPath>
</defs>
</svg>
