<svg width="16" height="15" viewBox="0 0 16 15" fill="none" xmlns="http://www.w3.org/2000/svg">
<g id="material-symbols:directions-run" clip-path="url(#clip0_733_391)">
<path id="Vector" d="M9.19998 14.0997C8.8686 14.0997 8.59998 13.8311 8.59998 13.4997V10.8404C8.59998 10.6228 8.51081 10.4148 8.35327 10.2647C7.90656 9.83931 7.16657 10.0627 7.02986 10.6642L6.95413 10.9974C6.83506 11.5214 6.31952 11.8544 5.79298 11.7476L3.19641 11.2207C2.86674 11.1538 2.65341 10.8325 2.71938 10.5027C2.78586 10.1703 3.11039 9.95604 3.44223 10.0252L4.73078 10.2936C5.27543 10.4071 5.80797 10.0542 5.91578 9.50843L6.51676 6.46596C6.5875 6.10787 6.23521 5.81267 5.89502 5.94497C5.71714 6.01414 5.59998 6.18542 5.59998 6.37628V7.49971C5.59998 7.83108 5.33135 8.09971 4.99998 8.09971C4.6686 8.09971 4.39998 7.83108 4.39998 7.49971V5.93801C4.39998 5.53853 4.63772 5.17739 5.00465 5.01947L6.76998 4.25971C7.11998 4.10971 7.37758 4.01211 7.54278 3.96691C7.70758 3.92211 7.85998 3.89971 7.99998 3.89971C8.20998 3.89971 8.40498 3.95471 8.58498 4.06471C8.76498 4.17471 8.90998 4.31971 9.01998 4.49971L9.61998 5.45971C9.87997 5.87971 10.2324 6.22471 10.6772 6.49471C10.9606 6.66657 11.2692 6.78374 11.6032 6.84621C11.9289 6.90713 12.2 7.16834 12.2 7.49971C12.2 7.83108 11.9301 8.10444 11.6017 8.06047C11.1633 8.00178 10.7454 7.87726 10.3478 7.68691C10.2325 7.63181 10.1209 7.5732 10.013 7.51106C9.50263 7.2171 8.73203 7.43944 8.61652 8.01696C8.56887 8.25524 8.64666 8.50131 8.82263 8.6689L9.48963 9.30414C9.68781 9.49288 9.79998 9.7546 9.79998 10.0283V13.4997C9.79998 13.8311 9.53135 14.0997 9.19998 14.0997ZM8.89998 3.59971C8.56998 3.59971 8.28758 3.48211 8.05278 3.24691C7.81758 3.01211 7.69998 2.72971 7.69998 2.39971C7.69998 2.06971 7.81758 1.78711 8.05278 1.55191C8.28758 1.31711 8.56998 1.19971 8.89998 1.19971C9.22998 1.19971 9.51258 1.31711 9.74778 1.55191C9.98258 1.78711 10.1 2.06971 10.1 2.39971C10.1 2.72971 9.98258 3.01211 9.74778 3.24691C9.51258 3.48211 9.22998 3.59971 8.89998 3.59971Z" fill="white"/>
</g>
<defs>
<clipPath id="clip0_733_391">
<rect width="14.4" height="14.4" fill="white" transform="translate(0.799988 0.299805)"/>
</clipPath>
</defs>
</svg>
