<svg width="60" height="61" viewBox="0 0 60 61" fill="none" xmlns="http://www.w3.org/2000/svg">
<g id="maki:swimming" clip-path="url(#clip0_712_357)">
<path id="Vector" d="M40.444 8.5C40.0377 8.5 38.937 8.98373 38.7358 9.07369C38.7145 9.0832 38.6936 9.09326 38.6728 9.10378L25.416 15.808C23.644 16.508 22.944 19.332 24.008 20.744L26.7884 24.7799C27.371 25.6255 27.0765 26.7907 26.1621 27.2581L14.432 33.2531C13.3129 33.8251 13.1799 35.3718 14.185 36.1264L19.0857 39.8056C19.6386 40.2206 20.3876 40.2596 20.9805 39.9042L29.1335 35.0163C29.6718 34.6936 30.3441 34.6937 30.8823 35.0166L38.8698 39.8091C39.5387 40.2104 40.395 40.105 40.9466 39.5534L42.9734 37.5266C43.5717 36.9283 43.639 35.9813 43.1314 35.3045L33.1483 21.9938C32.543 21.1867 32.7697 20.033 33.6355 19.515L42.244 14.364C44.356 13.3 44.016 11.548 44.016 10.484C44 9.644 42.576 8.5 40.444 8.5ZM49.008 20.5C48.0885 20.4992 47.1778 20.6795 46.328 21.0307C45.4782 21.3819 44.7058 21.897 44.0551 22.5466C43.4043 23.1962 42.8879 23.9677 42.5353 24.8169C42.1827 25.6661 42.0008 26.5765 42 27.496C41.9992 28.4155 42.1795 29.3262 42.5307 30.176C42.8819 31.0258 43.397 31.7982 44.0466 32.4489C44.6962 33.0997 45.4677 33.6161 46.3169 33.9687C47.1661 34.3213 48.0765 34.5032 48.996 34.504C50.853 34.5056 52.6347 33.7694 53.9489 32.4574C55.2632 31.1454 56.0024 29.365 56.004 27.508C56.0056 25.651 55.2694 23.8693 53.9574 22.5551C52.6454 21.2408 50.865 20.5016 49.008 20.5ZM10.8746 41.0248C10.3363 40.7018 9.66372 40.7018 9.12536 41.0248L0.825357 46.0048C0.313308 46.312 0 46.8654 0 47.4625V49.4975C0 50.8189 1.44155 51.6351 2.57464 50.9552L9.12536 47.0248C9.66372 46.7018 10.3363 46.7018 10.8746 47.0248L19.1257 51.9754C19.6639 52.2983 20.3362 52.2984 20.8745 51.9757L29.1335 47.0243C29.6718 46.7016 30.3441 46.7017 30.8823 47.0246L39.0273 51.9116C39.6203 52.2674 40.3696 52.2285 40.9226 51.8134L47.1593 47.1311C47.6745 46.7444 48.364 46.682 48.9402 46.9701L57.5397 51.2699C58.6701 51.835 60 51.0131 60 49.7493V47.5507C60 46.9067 59.6362 46.3181 59.0603 46.0301L48.9402 40.9701C48.364 40.682 47.6745 40.7444 47.1593 41.1311L40.9226 45.8134C40.3696 46.2285 39.6203 46.2674 39.0273 45.9116L30.8823 41.0246C30.3441 40.7017 29.6718 40.7016 29.1335 41.0243L20.8745 45.9757C20.3362 46.2984 19.6639 46.2983 19.1257 45.9754L10.8746 41.0248Z" fill="white"/>
</g>
<defs>
<clipPath id="clip0_712_357">
<rect width="60" height="60" fill="white" transform="translate(0 0.5)"/>
</clipPath>
</defs>
</svg>
