<svg width="60" height="60" viewBox="0 0 60 60" fill="none" xmlns="http://www.w3.org/2000/svg">
<g id="maki:swimming" clip-path="url(#clip0_820_6)">
<path id="Vector" d="M40.444 8C40.0377 8 38.937 8.48373 38.7358 8.57369C38.7145 8.5832 38.6936 8.59326 38.6728 8.60378L25.416 15.308C23.644 16.008 22.944 18.832 24.008 20.244L26.7884 24.2799C27.371 25.1255 27.0765 26.2907 26.1621 26.7581L14.432 32.7531C13.3129 33.3251 13.1799 34.8718 14.185 35.6264L19.0857 39.3056C19.6386 39.7206 20.3876 39.7596 20.9805 39.4042L29.1335 34.5163C29.6718 34.1936 30.3441 34.1937 30.8823 34.5166L38.8698 39.3091C39.5387 39.7104 40.395 39.605 40.9466 39.0534L42.9734 37.0266C43.5717 36.4283 43.639 35.4813 43.1314 34.8045L33.1483 21.4938C32.543 20.6867 32.7697 19.533 33.6355 19.015L42.244 13.864C44.356 12.8 44.016 11.048 44.016 9.984C44 9.144 42.576 8 40.444 8ZM49.008 20C48.0885 19.9992 47.1778 20.1795 46.328 20.5307C45.4782 20.8819 44.7058 21.397 44.0551 22.0466C43.4043 22.6962 42.8879 23.4677 42.5353 24.3169C42.1827 25.1661 42.0008 26.0765 42 26.996C41.9992 27.9155 42.1795 28.8262 42.5307 29.676C42.8819 30.5258 43.397 31.2982 44.0466 31.9489C44.6962 32.5997 45.4677 33.1161 46.3169 33.4687C47.1661 33.8213 48.0765 34.0032 48.996 34.004C50.853 34.0056 52.6347 33.2694 53.9489 31.9574C55.2632 30.6454 56.0024 28.865 56.004 27.008C56.0056 25.151 55.2694 23.3693 53.9574 22.0551C52.6454 20.7408 50.865 20.0016 49.008 20ZM10.8746 40.5248C10.3363 40.2018 9.66372 40.2018 9.12536 40.5248L0.825357 45.5048C0.313308 45.812 0 46.3654 0 46.9625V48.9975C0 50.3189 1.44155 51.1351 2.57464 50.4552L9.12536 46.5248C9.66372 46.2018 10.3363 46.2018 10.8746 46.5248L19.1257 51.4754C19.6639 51.7983 20.3362 51.7984 20.8745 51.4757L29.1335 46.5243C29.6718 46.2016 30.3441 46.2017 30.8823 46.5246L39.0273 51.4116C39.6203 51.7674 40.3696 51.7285 40.9226 51.3134L47.1593 46.6311C47.6745 46.2444 48.364 46.182 48.9402 46.4701L57.5397 50.7699C58.6701 51.335 60 50.5131 60 49.2493V47.0507C60 46.4067 59.6362 45.8181 59.0603 45.5301L48.9402 40.4701C48.364 40.182 47.6745 40.2444 47.1593 40.6311L40.9226 45.3134C40.3696 45.7285 39.6203 45.7674 39.0273 45.4116L30.8823 40.5246C30.3441 40.2017 29.6718 40.2016 29.1335 40.5243L20.8745 45.4757C20.3362 45.7984 19.6639 45.7983 19.1257 45.4754L10.8746 40.5248Z" fill="white"/>
</g>
<defs>
<clipPath id="clip0_820_6">
<rect width="60" height="60" fill="white"/>
</clipPath>
</defs>
</svg>
