<svg width="24" height="23" viewBox="0 0 24 23" fill="none" xmlns="http://www.w3.org/2000/svg">
<g id="maki:soccer" clip-path="url(#clip0_801_3)">
<path id="Vector" d="M17.5086 2.55614C17.5086 3.15643 17.2701 3.73214 16.8456 4.15662C16.4211 4.58109 15.8454 4.81955 15.2451 4.81955C14.6448 4.81955 14.0691 4.58109 13.6447 4.15662C13.2202 3.73214 12.9817 3.15643 12.9817 2.55614C12.9817 1.95584 13.2202 1.38014 13.6447 0.955663C14.0691 0.531191 14.6448 0.292725 15.2451 0.292725C15.8454 0.292725 16.4211 0.531191 16.8456 0.955663C17.2701 1.38014 17.5086 1.95584 17.5086 2.55614ZM17.5086 16.8911C17.1084 16.8911 16.7246 17.0501 16.4416 17.3331C16.1586 17.616 15.9996 17.9998 15.9996 18.4C15.9996 18.8002 16.1586 19.184 16.4416 19.467C16.7246 19.75 17.1084 19.909 17.5086 19.909C17.9088 19.909 18.2926 19.75 18.5755 19.467C18.8585 19.184 19.0175 18.8002 19.0175 18.4C19.0175 17.9998 18.8585 17.616 18.5755 17.3331C18.2926 17.0501 17.9088 16.8911 17.5086 16.8911ZM20.285 9.48219L17.4029 6.60011C17.3358 6.51628 17.2509 6.44842 17.1544 6.40145C17.0578 6.35447 16.952 6.32955 16.8446 6.3285H6.19148C5.99139 6.3285 5.79948 6.40799 5.65799 6.54948C5.5165 6.69097 5.43701 6.88287 5.43701 7.08297C5.43701 7.28307 5.5165 7.47497 5.65799 7.61646C5.79948 7.75795 5.99139 7.83744 6.19148 7.83744H7.96042C9.01595 7.83744 9.6997 8.95163 9.22168 9.89271L5.49193 17.2357C5.45548 17.3074 5.42537 17.3836 5.42202 17.464C5.41701 17.5845 5.41846 17.7069 5.42438 17.8274C5.43117 17.9655 5.47503 18.1004 5.55295 18.2172C5.66496 18.3853 5.83843 18.5026 6.03605 18.5441C6.23368 18.5857 6.43971 18.548 6.60985 18.4392C6.7187 18.3696 6.8073 18.2745 6.86887 18.1634C6.93829 18.0383 6.98272 17.8996 7.05498 17.776L8.04525 16.0827C8.29896 15.6488 8.76601 15.3822 9.2686 15.3822C10.2978 15.3822 10.9885 16.4462 10.5621 17.3829L8.56053 21.7801C8.51303 21.8591 8.48093 21.9459 8.46547 22.036C8.45005 22.1258 8.44274 22.2176 8.44277 22.3087C8.44281 22.4621 8.48873 22.6131 8.57623 22.7416C8.68964 22.9082 8.86383 23.0236 9.06141 23.0631C9.25898 23.1026 9.46417 23.0631 9.63291 22.953C9.75207 22.8752 9.84634 22.7666 9.90673 22.6402C9.9571 22.5348 9.99032 22.4213 10.0427 22.3169L16.1646 10.099C16.6006 9.22891 17.7646 9.0487 18.4433 9.74624L19.2288 10.5535C19.374 10.6762 19.5601 10.7395 19.75 10.7309C19.9398 10.7222 20.1194 10.6422 20.2529 10.5069C20.3863 10.3715 20.4638 10.1908 20.4697 10.0008C20.4757 9.81085 20.4097 9.62563 20.285 9.48219Z" fill="white"/>
</g>
<defs>
<clipPath id="clip0_801_3">
<rect width="22.6341" height="22.6341" fill="white" transform="translate(0.910645 0.292725)"/>
</clipPath>
</defs>
</svg>
