<svg width="21" height="21" viewBox="0 0 21 21" fill="none" xmlns="http://www.w3.org/2000/svg">
<g id="fa6-solid:volleyball" clip-path="url(#clip0_801_179)">
<path id="Vector" d="M20.5935 10.8638C19.5839 11.2003 18.5279 11.3976 17.4603 11.4479C17.8162 7.37473 16.2419 3.54914 13.4684 0.911068C17.588 2.11019 20.6013 5.91644 20.6013 10.4228C20.6013 10.5698 20.5974 10.7168 20.5935 10.8638ZM20.4427 12.206C20.2183 13.4438 19.7619 14.6043 19.1198 15.6371C15.3483 17.5131 10.6988 17.2849 7.05504 14.6894C7.97179 13.2891 9.19799 12.0707 10.7104 11.1384C13.8011 12.8095 17.2901 13.1034 20.4427 12.206ZM11.3139 10.0592C11.2172 6.54308 9.72405 3.37894 7.37223 1.09674C8.40889 0.721529 9.53065 0.520386 10.6988 0.520386C10.8033 0.520386 10.9038 0.520386 11.0044 0.524254C14.5167 2.85287 16.6403 6.99178 16.2148 11.444C14.5476 11.3512 12.8727 10.8986 11.31 10.0554L11.3139 10.0592ZM6.13442 1.63441C6.93126 2.34228 7.63139 3.15846 8.21161 4.05587C4.50593 5.78492 1.98004 9.06124 1.07876 12.7785C0.89309 12.0242 0.796387 11.2351 0.796387 10.4228C0.796387 6.6011 2.96255 3.28611 6.13442 1.63441ZM8.82665 5.13508C9.58093 6.62818 10.0258 8.30308 10.0761 10.0747C7.08211 11.9159 5.08615 14.79 4.28545 17.9657C3.34936 17.1689 2.56026 16.2018 1.9723 15.111C2.23147 10.9063 4.75349 6.99178 8.82278 5.13508H8.82665ZM10.6988 20.3253C8.73768 20.3253 6.90805 19.7566 5.36853 18.7703C5.58514 17.7259 5.94101 16.7163 6.4284 15.7647C9.77821 18.105 13.8746 18.6542 17.5454 17.5789C15.7661 19.2809 13.3562 20.3253 10.6988 20.3253Z" fill="white"/>
</g>
<defs>
<clipPath id="clip0_801_179">
<rect width="19.8049" height="19.8049" fill="white" transform="translate(0.796387 0.520386)"/>
</clipPath>
</defs>
</svg>
